<mxfile host="Electron" agent="Mozilla/5.0 (Windows NT 10.0; Win64; x64) AppleWebKit/537.36 (KHTML, like Gecko) draw.io/24.7.8 Chrome/128.0.6613.36 Electron/32.0.1 Safari/537.36" version="24.7.8">
  <diagram name="Page-1" id="5lUoG9zKd5b8roOhihNR">
    <mxGraphModel dx="3585" dy="2110" grid="1" gridSize="10" guides="1" tooltips="1" connect="1" arrows="1" fold="1" page="1" pageScale="1" pageWidth="1920" pageHeight="1200" math="0" shadow="0">
      <root>
        <mxCell id="0" />
        <mxCell id="1" parent="0" />
        <mxCell id="5aYBWGIb35IwnZwiNEB4-1" value=".content" style="rounded=0;whiteSpace=wrap;html=1;fontSize=40;" parent="1" vertex="1">
          <mxGeometry y="90" width="1920" height="1040" as="geometry" />
        </mxCell>
        <mxCell id="5aYBWGIb35IwnZwiNEB4-2" value="header" style="rounded=0;whiteSpace=wrap;html=1;fontSize=40;" parent="1" vertex="1">
          <mxGeometry width="1920" height="90" as="geometry" />
        </mxCell>
        <mxCell id="5aYBWGIb35IwnZwiNEB4-3" value="footer" style="rounded=0;whiteSpace=wrap;html=1;fontSize=40;" parent="1" vertex="1">
          <mxGeometry y="1130" width="1920" height="70" as="geometry" />
        </mxCell>
        <mxCell id="kfaDBvitO7aJJsLJk2iY-1" value="" style="group;fontSize=40;" parent="1" vertex="1" connectable="0">
          <mxGeometry x="264" y="190" width="1392" height="820" as="geometry" />
        </mxCell>
        <mxCell id="5aYBWGIb35IwnZwiNEB4-6" value="poster" style="rounded=0;whiteSpace=wrap;html=1;strokeColor=default;align=center;verticalAlign=middle;fontFamily=Helvetica;fontSize=40;fontColor=default;fillColor=default;" parent="kfaDBvitO7aJJsLJk2iY-1" vertex="1">
          <mxGeometry width="464" height="820" as="geometry" />
        </mxCell>
        <mxCell id="5aYBWGIb35IwnZwiNEB4-7" value="synopsys" style="rounded=0;whiteSpace=wrap;html=1;strokeColor=default;align=center;verticalAlign=middle;fontFamily=Helvetica;fontSize=40;fontColor=default;fillColor=default;" parent="kfaDBvitO7aJJsLJk2iY-1" vertex="1">
          <mxGeometry x="464" y="100.9009009009009" width="928" height="302.7027027027027" as="geometry" />
        </mxCell>
        <mxCell id="5aYBWGIb35IwnZwiNEB4-8" value="title" style="rounded=0;whiteSpace=wrap;html=1;strokeColor=default;align=center;verticalAlign=middle;fontFamily=Helvetica;fontSize=40;fontColor=default;fillColor=default;" parent="kfaDBvitO7aJJsLJk2iY-1" vertex="1">
          <mxGeometry x="464" width="928" height="100.9009009009009" as="geometry" />
        </mxCell>
        <mxCell id="5aYBWGIb35IwnZwiNEB4-9" value="info" style="rounded=0;whiteSpace=wrap;html=1;strokeColor=default;align=center;verticalAlign=middle;fontFamily=Helvetica;fontSize=40;fontColor=default;fillColor=default;" parent="kfaDBvitO7aJJsLJk2iY-1" vertex="1">
          <mxGeometry x="464" y="403.6" width="921.73" height="416.4" as="geometry" />
        </mxCell>
        <mxCell id="MX8KQ32qjcjWr74Egnj--1" value="img" style="rounded=0;whiteSpace=wrap;html=1;strokeColor=default;align=center;verticalAlign=middle;fontFamily=Helvetica;fontSize=40;fontColor=default;fillColor=default;" parent="kfaDBvitO7aJJsLJk2iY-1" vertex="1">
          <mxGeometry x="80" y="40" width="304" height="340" as="geometry" />
        </mxCell>
      </root>
    </mxGraphModel>
  </diagram>
</mxfile>
